<svg width="128" height="86" viewBox="0 0 128 86" fill="none" xmlns="http://www.w3.org/2000/svg">
<circle cx="9.47328" cy="19.7242" r="9.46788" transform="rotate(90 9.47328 19.7242)" fill="#FABE8E"/>
<circle cx="118.206" cy="10.2567" r="9.46788" transform="rotate(90 118.206 10.2567)" fill="#FABE8E"/>
<path fill-rule="evenodd" clip-rule="evenodd" d="M118.206 0.788818C118.206 0.788818 118.206 0.788818 118.206 0.788818L47.1968 0.788818C41.9679 0.788818 37.729 5.02773 37.729 10.2567C37.729 15.4857 41.9679 19.7246 47.1968 19.7246L118.206 19.7246C123.435 19.7246 127.674 15.4857 127.674 10.2567C127.674 10.2567 127.674 10.2567 127.674 10.2567L118.206 10.2567L118.206 0.788818Z" fill="#FABE8E"/>
<path fill-rule="evenodd" clip-rule="evenodd" d="M127.674 0.788574L127.674 0.788876L118.206 0.788876L118.206 10.2568L127.674 10.2568L127.674 18.9681C127.674 55.4724 99.5939 85.9998 63.8349 85.9998C28.323 85.9998 0.384519 55.8931 -6.94923e-05 19.7243L18.937 19.7243C19.3164 46.4373 39.7639 67.0641 63.8349 67.0641C88.1325 67.0641 108.738 46.0471 108.738 18.9681L108.738 0.788573L127.674 0.788574Z" fill="#FABE8E"/>
</svg>
