<svg width="41" height="31" viewBox="0 0 41 31" fill="none" xmlns="http://www.w3.org/2000/svg">
<g clip-path="url(#clip0_117_386)">
<path d="M34.731 2.5962C32.0372 1.36588 29.1935 0.493046 26.2723 0C25.8726 0.712872 25.5109 1.44632 25.1888 2.19728C22.0773 1.72952 18.913 1.72952 15.8014 2.19728C15.4792 1.4464 15.1175 0.712958 14.7179 0C11.7949 0.49721 8.94929 1.37211 6.25284 2.60264C0.899686 10.5038 -0.55147 18.2088 0.174108 25.8044C3.30905 28.1151 6.81794 29.8724 10.5483 31C11.3882 29.873 12.1315 28.6774 12.7701 27.4258C11.5571 26.9738 10.3863 26.4162 9.27125 25.7593C9.5647 25.547 9.85171 25.3282 10.129 25.1159C13.3735 26.6381 16.9146 27.4273 20.5 27.4273C24.0853 27.4273 27.6264 26.6381 30.8709 25.1159C31.1515 25.3443 31.4385 25.5631 31.7287 25.7593C30.6115 26.4172 29.4386 26.976 28.2233 27.429C28.8612 28.68 29.6045 29.8746 30.4452 31C34.1787 29.877 37.6903 28.1204 40.8258 25.8076C41.6772 16.9992 39.3714 9.36499 34.731 2.5962ZM13.6892 21.1331C11.6673 21.1331 9.99682 19.3026 9.99682 17.0506C9.99682 14.7987 11.6092 12.9521 13.6828 12.9521C15.7563 12.9521 17.4138 14.7987 17.3784 17.0506C17.3429 19.3026 15.7499 21.1331 13.6892 21.1331ZM27.3107 21.1331C25.2856 21.1331 23.6216 19.3026 23.6216 17.0506C23.6216 14.7987 25.234 12.9521 27.3107 12.9521C29.3875 12.9521 31.0321 14.7987 30.9967 17.0506C30.9612 19.3026 29.3714 21.1331 27.3107 21.1331Z" fill="#DAA172"/>
</g>
<defs>
<clipPath id="clip0_117_386">
<rect width="41" height="31" fill="white"/>
</clipPath>
</defs>
</svg>
