<svg width="50" height="50" viewBox="0 0 50 50" fill="none" xmlns="http://www.w3.org/2000/svg">
<g clip-path="url(#clip0_117_104)">
<path d="M43.75 16.6666C40.7292 16.6666 39.0417 19.6666 39.7292 21.8958L32.3333 29.3125C31.7083 29.125 30.7917 29.125 30.1667 29.3125L24.8542 24C25.5625 21.7708 23.875 18.75 20.8333 18.75C17.8125 18.75 16.1042 21.75 16.8125 24L7.3125 33.4791C5.08334 32.7916 2.08334 34.4791 2.08334 37.5C2.08334 39.7916 3.95834 41.6666 6.25 41.6666C9.27084 41.6666 10.9583 38.6666 10.2708 36.4375L19.75 26.9375C20.375 27.125 21.2917 27.125 21.9167 26.9375L27.2292 32.25C26.5208 34.4791 28.2083 37.5 31.25 37.5C34.2708 37.5 35.9792 34.5 35.2708 32.25L42.6875 24.8541C44.9167 25.5416 47.9167 23.8541 47.9167 20.8333C47.9167 18.5416 46.0417 16.6666 43.75 16.6666Z" fill="#7FA05D"/>
<path d="M31.25 18.75L33.2083 14.4375L37.5 12.5L33.2083 10.5625L31.25 6.25L29.3333 10.5625L25 12.5L29.3333 14.4375L31.25 18.75Z" fill="#7FA05D"/>
<path d="M7.29167 22.9167L8.33334 18.75L12.5 17.7083L8.33334 16.6667L7.29167 12.5L6.25 16.6667L2.08334 17.7083L6.25 18.75L7.29167 22.9167Z" fill="#7FA05D"/>
</g>
<defs>
<clipPath id="clip0_117_104">
<rect width="50" height="50" fill="white"/>
</clipPath>
</defs>
</svg>
