<svg width="50" height="50" viewBox="0 0 50 50" fill="none" xmlns="http://www.w3.org/2000/svg">
<g clip-path="url(#clip0_117_101)">
<path d="M25 25C25 18.75 30.2083 13.5417 36.4583 13.5417C42.7083 13.5417 47.9167 18.75 47.9167 25H25ZM25 25C25 31.25 19.7917 36.4584 13.5417 36.4584C7.29168 36.4584 2.08334 31.25 2.08334 25H25ZM25 25C18.75 25 13.5417 19.7917 13.5417 13.5417C13.5417 7.29171 18.75 2.08337 25 2.08337V25ZM25 25C31.25 25 36.4583 30.2084 36.4583 36.4584C36.4583 42.7084 31.25 47.9167 25 47.9167V25Z" fill="#7FA05D"/>
</g>
<defs>
<clipPath id="clip0_117_101">
<rect width="50" height="50" fill="white"/>
</clipPath>
</defs>
</svg>
