<svg width="274" height="125" viewBox="0 0 274 125" fill="none" xmlns="http://www.w3.org/2000/svg">
<path d="M53.1945 89.6547C48.8852 91.6758 42.1162 93.4873 32.8874 95.089C24.3832 96.5763 17.4425 97.3199 12.0655 97.3199C8.21377 97.3199 5.44895 96.7288 3.77099 95.5466C1.48286 93.9449 0.3388 91.0085 0.3388 86.7373L1.48286 67.8031C2.47438 50.337 2.97015 30.9642 2.97015 9.68463C2.97015 8.04481 3.50404 6.65286 4.57183 5.5088C5.67776 4.36474 7.03157 3.79271 8.63326 3.79271C10.2731 3.79271 11.6269 4.36474 12.6947 5.5088C13.8006 6.65286 14.3536 8.04481 14.3536 9.68463C14.3536 31.2312 13.8387 50.8328 12.8091 68.4895L12.0655 77.1844C11.7604 80.3496 11.646 83.1526 11.7222 85.5932C21.6756 85.7077 34.2603 83.3623 49.4763 78.5573C50.1246 78.3666 50.7348 78.2712 51.3068 78.2712C52.9467 78.2712 54.3195 78.9195 55.4255 80.2161C56.3788 81.3983 56.8555 82.7522 56.8555 84.2776C56.8555 86.7182 55.6352 88.5106 53.1945 89.6547ZM77.9635 19.5808C76.133 19.5808 74.5504 18.9325 73.2156 17.6359C71.8809 16.3393 71.2135 14.7757 71.2135 12.9452C71.2135 11.1147 71.8809 9.55116 73.2156 8.25455C74.5504 6.95795 76.133 6.30965 77.9635 6.30965C79.794 6.30965 81.3576 6.95795 82.6542 8.25455C83.9889 9.55116 84.6563 11.1147 84.6563 12.9452C84.6563 14.7757 83.9889 16.3393 82.6542 17.6359C81.3576 18.9325 79.794 19.5808 77.9635 19.5808ZM80.5376 66.0298C80.5376 68.3179 80.5948 71.7501 80.7093 76.3263C80.8618 80.8644 80.9381 84.2776 80.9381 86.5657C80.9381 88.2437 80.4232 89.6165 79.3936 90.6843C78.3639 91.7521 77.0101 92.286 75.3322 92.286C73.6923 92.286 72.3385 91.7521 71.2707 90.6843C70.2411 89.6165 69.7262 88.2437 69.7262 86.5657C69.7262 84.2776 69.65 80.8644 69.4974 76.3263C69.383 71.7501 69.3258 68.3179 69.3258 66.0298C69.3258 62.445 69.5165 57.9832 69.8979 52.6442C70.2792 47.2671 70.4699 42.7862 70.4699 39.2015C70.4699 37.4854 70.9847 36.0934 72.0144 35.0256C73.0822 33.9578 74.436 33.424 76.0758 33.424C77.7156 33.424 79.0504 33.9578 80.08 35.0256C81.1478 36.0934 81.6817 37.4854 81.6817 39.2015C81.6817 42.7862 81.491 47.2671 81.1097 52.6442C80.7283 57.9832 80.5376 62.445 80.5376 66.0298ZM146.951 67.3454L145.635 86.5657C145.406 94.1928 144.624 100.428 143.29 105.271C141.573 111.449 138.828 116.006 135.052 118.943C130.476 122.489 123.86 124.263 115.203 124.263C110.131 124.263 105.879 123.919 102.446 123.233C97.6414 122.28 95.2389 120.297 95.2389 117.284C95.2389 113.89 96.8978 112.193 100.216 112.193C101.588 112.193 103.877 112.517 107.08 113.165C110.283 113.852 113.83 114.157 117.72 114.08C125.042 113.966 130.095 110.419 132.879 103.441C134.709 98.7881 135.682 91.6377 135.796 81.9894C133.737 85.803 131.277 88.6631 128.417 90.5699C125.595 92.4767 122.353 93.4301 118.692 93.4301C111.79 93.4301 106.165 91.0847 101.817 86.3941C97.5079 81.6653 95.3533 75.5446 95.3533 68.0319C95.3533 57.7353 98.3088 49.4408 104.22 43.1485C110.321 36.6655 118.635 33.424 129.16 33.424C132.707 33.424 135.682 33.8816 138.084 34.7968C140.487 35.7121 142.317 37.085 143.576 38.9155C147.656 39.0299 149.696 41.2989 149.696 45.7226C149.696 48.4302 149.296 52.0531 148.495 56.5912C147.618 61.8539 147.103 65.4387 146.951 67.3454ZM128.588 42.5765C121.343 42.5765 115.737 45.0743 111.771 50.0701C108.224 54.5701 106.451 60.2904 106.451 67.231C106.451 72.7607 107.499 76.9174 109.597 79.7013C111.694 82.4852 114.84 83.8771 119.035 83.8771C122.887 83.8771 126.624 81.7034 130.247 77.356C133.527 73.3518 135.395 69.3857 135.853 65.4577C136.654 61.3391 137.512 54.8751 138.427 46.0659C136.902 44.8837 135.319 44.0065 133.679 43.4345C132.04 42.8625 130.343 42.5765 128.588 42.5765ZM209.988 95.5466C207.281 95.5466 205.508 94.0974 204.669 91.1992C203.791 88.072 202.991 83.6293 202.266 77.8708C201.58 72.3412 201.236 67.8031 201.236 64.2565C201.236 63.2649 201.274 61.7586 201.351 59.7374C201.465 57.7162 201.522 56.2099 201.522 55.2184C201.522 48.0489 199.73 44.4642 196.145 44.4642C191.302 44.4642 186.974 46.657 183.16 51.0425C181.215 53.2925 178.546 57.5828 175.152 63.9132C175.152 78.4428 174.542 87.0424 173.321 89.7119C172.253 92.0763 170.595 93.2585 168.345 93.2585C166.781 93.2585 165.408 92.7246 164.226 91.6568C163.044 90.589 162.453 89.2924 162.453 87.767C162.453 87.2331 162.624 86.3941 162.967 85.25C163.272 84.2966 163.482 81.5128 163.597 76.8984L163.768 68.4323L163.94 26.388C164.207 21.6592 164.34 18.4749 164.34 16.835C164.34 14.8901 164.15 13.0596 163.768 11.3435C163.425 9.58929 163.253 7.77786 163.253 5.90922C163.253 4.30753 163.806 2.99186 164.912 1.9622C166.018 0.894412 167.372 0.360516 168.974 0.360516C172.101 0.360516 173.931 2.03848 174.465 5.3944C175.075 9.09353 175.381 12.4304 175.381 15.405C175.381 19.4092 175.247 23.585 174.98 27.9324C174.751 32.0892 174.656 36.265 174.694 40.4599L174.751 45.4938C177.878 41.2989 181.215 38.1718 184.762 36.1125C188.347 34.015 192.141 32.9663 196.145 32.9663C202.476 32.9663 206.823 35.0256 209.188 39.1443C210.866 42.0426 211.819 46.9239 212.048 53.7883L212.505 64.7141L213.649 76.6123C214.183 81.0742 214.832 85.0021 215.594 88.3962C215.747 89.0445 215.823 89.5975 215.823 90.0551C215.823 91.6186 215.251 92.9153 214.107 93.9449C212.963 95.0127 211.59 95.5466 209.988 95.5466ZM268.107 43.2629C267.306 43.2629 266.353 43.2248 265.247 43.1485C264.179 43.0722 263.245 43.0341 262.444 43.0341C261.567 43.0341 258.973 43.3201 254.664 43.8921L255.751 77.6992L255.808 80.2161L255.865 83.1335C256.018 91.4852 254.016 95.661 249.859 95.661C248.334 95.661 246.999 95.1652 245.855 94.1737C244.749 93.1822 244.196 91.9428 244.196 90.4555C244.196 89.0064 244.253 86.8326 244.368 83.9344C244.482 81.0361 244.539 78.8623 244.539 77.4132L243.395 44.0065C240.611 43.8921 236.378 43.568 230.696 43.0341C227.302 42.5765 225.605 40.6888 225.605 37.371C225.605 35.693 226.12 34.3011 227.149 33.1951C228.179 32.0892 229.495 31.5362 231.096 31.5362L243.109 32.5087C243.109 30.5638 243.014 27.9706 242.823 24.7291C242.671 21.4494 242.594 19.085 242.594 17.6359C242.594 16.0342 243.147 14.7185 244.253 13.6889C245.359 12.6211 246.713 12.0872 248.315 12.0872C251.747 12.0872 253.749 14.8901 254.321 20.496C254.435 21.907 254.492 23.6041 254.492 25.5871L254.378 28.9049L254.321 32.4515C259.05 31.8413 261.757 31.5362 262.444 31.5362C266.41 31.5362 269.003 31.7269 270.223 32.1083C272.55 32.871 273.713 34.6634 273.713 37.4854C273.713 39.1633 273.179 40.5553 272.111 41.6612C271.081 42.729 269.747 43.2629 268.107 43.2629Z" fill="#B0AEAE"/>
</svg>
