<svg width="40" height="40" viewBox="0 0 40 40" fill="none" xmlns="http://www.w3.org/2000/svg">
<g clip-path="url(#clip0_117_141)">
<path d="M19.9833 3.33331C10.7833 3.33331 3.33331 10.8 3.33331 20C3.33331 29.2 10.7833 36.6666 19.9833 36.6666C29.2 36.6666 36.6666 29.2 36.6666 20C36.6666 10.8 29.2 3.33331 19.9833 3.33331ZM31.5333 13.3333H26.6166C26.0833 11.25 25.3166 9.24998 24.3166 7.39998C27.3833 8.44998 29.9333 10.5833 31.5333 13.3333ZM20 6.73331C21.3833 8.73331 22.4666 10.95 23.1833 13.3333H16.8166C17.5333 10.95 18.6166 8.73331 20 6.73331ZM7.09998 23.3333C6.83331 22.2666 6.66665 21.15 6.66665 20C6.66665 18.85 6.83331 17.7333 7.09998 16.6666H12.7333C12.6 17.7666 12.5 18.8666 12.5 20C12.5 21.1333 12.6 22.2333 12.7333 23.3333H7.09998ZM8.46665 26.6666H13.3833C13.9166 28.75 14.6833 30.75 15.6833 32.6C12.6166 31.55 10.0666 29.4333 8.46665 26.6666ZM13.3833 13.3333H8.46665C10.0666 10.5666 12.6166 8.44998 15.6833 7.39998C14.6833 9.24998 13.9166 11.25 13.3833 13.3333ZM20 33.2666C18.6166 31.2666 17.5333 29.05 16.8166 26.6666H23.1833C22.4666 29.05 21.3833 31.2666 20 33.2666ZM23.9 23.3333H16.1C15.95 22.2333 15.8333 21.1333 15.8333 20C15.8333 18.8666 15.95 17.75 16.1 16.6666H23.9C24.05 17.75 24.1666 18.8666 24.1666 20C24.1666 21.1333 24.05 22.2333 23.9 23.3333ZM24.3166 32.6C25.3166 30.75 26.0833 28.75 26.6166 26.6666H31.5333C29.9333 29.4166 27.3833 31.55 24.3166 32.6ZM27.2666 23.3333C27.4 22.2333 27.5 21.1333 27.5 20C27.5 18.8666 27.4 17.7666 27.2666 16.6666H32.9C33.1666 17.7333 33.3333 18.85 33.3333 20C33.3333 21.15 33.1666 22.2666 32.9 23.3333H27.2666Z" fill="#7FA05D"/>
</g>
<defs>
<clipPath id="clip0_117_141">
<rect width="40" height="40" fill="white"/>
</clipPath>
</defs>
</svg>
