<svg width="41" height="41" viewBox="0 0 41 41" fill="none" xmlns="http://www.w3.org/2000/svg">
<g clip-path="url(#clip0_117_144)">
<path d="M11.5483 8.26833L8.47331 5.21041L6.06456 7.61916L9.12248 10.6771L11.5483 8.26833ZM1.70831 17.9375H6.83331V21.3542H1.70831V17.9375ZM18.7916 0.939575H22.2083V5.97916H18.7916V0.939575ZM32.5266 5.20187L34.932 7.60549L31.8741 10.6634L29.4704 8.25808L32.5266 5.20187ZM29.4516 31.0233L32.5096 34.0983L34.9183 31.6896L31.8433 28.6317L29.4516 31.0233ZM34.1666 17.9375H39.2916V21.3542H34.1666V17.9375ZM20.5 9.39583C14.8454 9.39583 10.25 13.9912 10.25 19.6458C10.25 25.3004 14.8454 29.8958 20.5 29.8958C26.1546 29.8958 30.75 25.3004 30.75 19.6458C30.75 13.9912 26.1546 9.39583 20.5 9.39583ZM20.5 26.4792C16.7246 26.4792 13.6666 23.4212 13.6666 19.6458C13.6666 15.8704 16.7246 12.8125 20.5 12.8125C24.2754 12.8125 27.3333 15.8704 27.3333 19.6458C27.3333 23.4212 24.2754 26.4792 20.5 26.4792ZM18.7916 33.3125H22.2083V38.3521H18.7916V33.3125ZM6.06456 31.6725L8.47331 34.0812L11.5312 31.0062L9.12248 28.5975L6.06456 31.6725Z" fill="#7FA05D"/>
</g>
<defs>
<clipPath id="clip0_117_144">
<rect width="41" height="41" fill="white"/>
</clipPath>
</defs>
</svg>
