<svg width="50" height="50" viewBox="0 0 50 50" fill="none" xmlns="http://www.w3.org/2000/svg">
<g clip-path="url(#clip0_117_95)">
<path d="M49.6599 3.36467C49.6566 3.21813 49.6511 3.07159 49.6456 2.92451C49.6396 2.76041 49.6347 2.59686 49.6259 2.43221C49.6089 2.10181 49.5875 1.76977 49.5595 1.43663C49.515 0.902625 49.0908 0.47893 48.5568 0.433926C48.2236 0.405936 47.8927 0.38508 47.5628 0.367518C47.3954 0.358736 47.2297 0.353797 47.064 0.34776C46.9202 0.34282 46.7758 0.336783 46.6326 0.334039C46.3927 0.328551 46.1545 0.326904 45.9169 0.326904C45.8774 0.326904 45.8373 0.326904 45.7978 0.327453C41.0625 0.350504 36.7158 1.51292 32.3274 3.90911C32.25 3.95191 32.1726 3.99198 32.0952 4.03424C32.0678 4.04961 32.0409 4.06278 32.0134 4.07814C32.0074 4.08144 32.0025 4.08693 31.9964 4.09022C28.3983 6.09564 24.8062 8.92594 21.0885 12.6437C20.6659 13.0663 20.2526 13.4944 19.8437 13.9247L12.619 14.474C12.4077 14.49 12.2057 14.5668 12.0372 14.6947L0.705542 23.3184C0.344962 23.5928 0.189644 24.0604 0.315325 24.4956C0.440458 24.9309 0.820247 25.2442 1.27138 25.2854L11.9038 26.2453L15.2703 29.6118C14.0772 29.8846 12.8615 30.5531 11.8204 31.5936C11.1969 32.2177 10.6964 32.9169 10.3298 33.6808C9.85067 34.6956 8.79856 37.3086 7.68444 40.0752L7.14055 41.4248C6.9759 41.8331 7.07085 42.3002 7.38259 42.6114C7.59224 42.8216 7.87324 42.933 8.15918 42.933C8.29693 42.933 8.43634 42.9066 8.5697 42.8529L9.96757 42.2892C12.7117 41.1839 15.3038 40.1394 16.3208 39.6603C17.0782 39.2959 17.7779 38.7954 18.4009 38.1724C19.4414 37.1319 20.1094 35.9162 20.3821 34.7231L23.6488 37.9897L24.6087 48.6216C24.6493 49.0727 24.9632 49.4525 25.3984 49.5776C25.4989 49.6067 25.6009 49.6205 25.7019 49.6205C26.0389 49.6205 26.3644 49.4651 26.5757 49.1874L35.1983 37.8563C35.3262 37.6878 35.403 37.4859 35.4189 37.2746L35.9518 30.2633C36.4222 29.8182 36.8881 29.3659 37.3497 28.9049C41.0702 25.1844 43.9022 21.5907 45.9081 17.9904C45.9103 17.9865 45.9136 17.9833 45.9158 17.9794C45.9257 17.9618 45.9339 17.9448 45.9438 17.9273C46.0354 17.7621 46.1227 17.5969 46.2105 17.4311C48.5194 13.1245 49.6413 8.8502 49.6654 4.20492C49.6659 4.15937 49.666 4.11437 49.666 4.06881C49.667 3.83556 49.6654 3.60066 49.6599 3.36467ZM35.6264 20.852C34.7609 21.7175 33.6094 22.195 32.3845 22.195C31.16 22.195 30.0086 21.718 29.1425 20.852C27.355 19.0639 27.355 16.1557 29.1425 14.3676C30.9312 12.58 33.8399 12.5811 35.6264 14.3676C36.4924 15.2331 36.9699 16.3845 36.9699 17.6095C36.9699 18.8345 36.493 19.9859 35.6264 20.852Z" fill="#FABE8E"/>
</g>
<defs>
<clipPath id="clip0_117_95">
<rect width="50" height="50" fill="white"/>
</clipPath>
</defs>
</svg>
